<svg xmlns="http://www.w3.org/2000/svg" width="17.333" height="10.667" viewBox="0 0 17.333 10.667">
    <defs>
        <style>
            .cls-1{fill:#a5a4bf}
        </style>
    </defs>
    <g id="icon_customers">
        <path id="Union_10" d="M0 10.667a4.012 4.012 0 0 1 4-4h1.333a4.012 4.012 0 0 1 4 4zm1.733-1.334h5.933A2.689 2.689 0 0 0 5.333 8H4.066a2.69 2.69 0 0 0-2.333 1.333zm.267-6v-.667a2.667 2.667 0 0 1 5.333 0v.667a2.667 2.667 0 1 1-5.333 0zm1.333-.667v.667a1.334 1.334 0 1 0 2.667 0v-.667a1.334 1.334 0 0 0-2.667 0z" class="cls-1" data-name="Union 10" transform="translate(8)"/>
        <path id="Union_12" d="M0 9.667a3.609 3.609 0 0 1 3.571-3.625h1.19a3.609 3.609 0 0 1 3.572 3.625zm1.547-1.209h5.3A2.394 2.394 0 0 0 4.761 7.25h-1.13a2.4 2.4 0 0 0-2.084 1.208zm.238-5.438v-.6A2.406 2.406 0 0 1 4.166 0a2.406 2.406 0 0 1 2.381 2.416v.6a2.406 2.406 0 0 1-2.381 2.422 2.406 2.406 0 0 1-2.38-2.417zm1.19-.6v.6a1.191 1.191 0 1 0 2.381 0v-.6a1.191 1.191 0 1 0-2.381 0z" class="cls-1" data-name="Union 12" transform="translate(0 1)"/>
    </g>
</svg>
